<svg width="160" height="33" viewBox="0 0 160 33" fill="none" xmlns="http://www.w3.org/2000/svg">
<path d="M39.7773 11.207V13.9961H31.1641V11.207H39.7773ZM33.2969 7.55664H37.2344V21.543C37.2344 21.9714 37.2891 22.2995 37.3984 22.5273C37.5169 22.7552 37.6901 22.9147 37.918 23.0059C38.1458 23.0879 38.4329 23.1289 38.7793 23.1289C39.0254 23.1289 39.2441 23.1198 39.4355 23.1016C39.6361 23.0742 39.8047 23.0469 39.9414 23.0195L39.9551 25.918C39.6178 26.0273 39.2533 26.1139 38.8613 26.1777C38.4694 26.2415 38.0365 26.2734 37.5625 26.2734C36.6966 26.2734 35.9401 26.1322 35.293 25.8496C34.6549 25.5579 34.1628 25.0931 33.8164 24.4551C33.4701 23.8171 33.2969 22.9785 33.2969 21.9395V7.55664ZM50.0039 22.6641V16.0742C50.0039 15.6003 49.9264 15.1947 49.7715 14.8574C49.6165 14.5111 49.375 14.2422 49.0469 14.0508C48.7279 13.8594 48.3132 13.7637 47.8027 13.7637C47.3652 13.7637 46.987 13.8411 46.668 13.9961C46.349 14.1419 46.1029 14.3561 45.9297 14.6387C45.7565 14.9121 45.6699 15.2357 45.6699 15.6094H41.7324C41.7324 14.9805 41.8783 14.3835 42.1699 13.8184C42.4616 13.2533 42.8854 12.7565 43.4414 12.3281C43.9974 11.8906 44.6582 11.5488 45.4238 11.3027C46.1986 11.0566 47.0645 10.9336 48.0215 10.9336C49.1699 10.9336 50.1908 11.125 51.084 11.5078C51.9772 11.8906 52.679 12.4648 53.1895 13.2305C53.709 13.9961 53.9688 14.9531 53.9688 16.1016V22.4316C53.9688 23.2428 54.0189 23.9082 54.1191 24.4277C54.2194 24.9382 54.3652 25.3848 54.5566 25.7676V26H50.5781C50.3867 25.599 50.2409 25.0977 50.1406 24.4961C50.0495 23.8854 50.0039 23.2747 50.0039 22.6641ZM50.5234 16.9902L50.5508 19.2188H48.3496C47.8301 19.2188 47.3789 19.278 46.9961 19.3965C46.6133 19.515 46.2988 19.6836 46.0527 19.9023C45.8066 20.112 45.6243 20.3581 45.5059 20.6406C45.3965 20.9232 45.3418 21.2331 45.3418 21.5703C45.3418 21.9076 45.4193 22.2129 45.5742 22.4863C45.7292 22.7507 45.9525 22.9603 46.2441 23.1152C46.5358 23.2611 46.8776 23.334 47.2695 23.334C47.862 23.334 48.377 23.2155 48.8145 22.9785C49.252 22.7415 49.5892 22.4499 49.8262 22.1035C50.0723 21.7572 50.1999 21.429 50.209 21.1191L51.248 22.7871C51.1022 23.1608 50.9017 23.5482 50.6465 23.9492C50.4004 24.3503 50.0859 24.7285 49.7031 25.084C49.3203 25.4303 48.86 25.7174 48.3223 25.9453C47.7845 26.1641 47.1465 26.2734 46.4082 26.2734C45.4694 26.2734 44.6172 26.0866 43.8516 25.7129C43.0951 25.3301 42.4935 24.806 42.0469 24.1406C41.6094 23.4661 41.3906 22.7005 41.3906 21.8438C41.3906 21.069 41.5365 20.3809 41.8281 19.7793C42.1198 19.1777 42.5482 18.6719 43.1133 18.2617C43.6875 17.8424 44.403 17.528 45.2598 17.3184C46.1165 17.0996 47.11 16.9902 48.2402 16.9902H50.5234ZM65.002 21.9121C65.002 21.6296 64.9199 21.3743 64.7559 21.1465C64.5918 20.9186 64.2865 20.709 63.8398 20.5176C63.4023 20.3171 62.7689 20.1348 61.9395 19.9707C61.1921 19.8066 60.4948 19.6016 59.8477 19.3555C59.2096 19.1003 58.6536 18.7949 58.1797 18.4395C57.7148 18.084 57.3503 17.6647 57.0859 17.1816C56.8216 16.6895 56.6895 16.1289 56.6895 15.5C56.6895 14.8802 56.8216 14.2969 57.0859 13.75C57.3594 13.2031 57.7467 12.7201 58.248 12.3008C58.7585 11.8724 59.3783 11.5397 60.1074 11.3027C60.8457 11.0566 61.6751 10.9336 62.5957 10.9336C63.8809 10.9336 64.9837 11.1387 65.9043 11.5488C66.834 11.959 67.5449 12.5241 68.0371 13.2441C68.5384 13.9551 68.7891 14.7663 68.7891 15.6777H64.8516C64.8516 15.2949 64.7695 14.9531 64.6055 14.6523C64.4505 14.3424 64.2044 14.1009 63.8672 13.9277C63.5391 13.7454 63.1107 13.6543 62.582 13.6543C62.1445 13.6543 61.7663 13.7318 61.4473 13.8867C61.1283 14.0326 60.8822 14.2331 60.709 14.4883C60.5449 14.7344 60.4629 15.0078 60.4629 15.3086C60.4629 15.5365 60.5085 15.7415 60.5996 15.9238C60.6999 16.097 60.8594 16.2565 61.0781 16.4023C61.2969 16.5482 61.5794 16.6849 61.9258 16.8125C62.2812 16.931 62.7188 17.0404 63.2383 17.1406C64.3047 17.3594 65.2572 17.6465 66.0957 18.002C66.9342 18.3483 67.5996 18.8223 68.0918 19.4238C68.584 20.0163 68.8301 20.7956 68.8301 21.7617C68.8301 22.418 68.6842 23.0195 68.3926 23.5664C68.1009 24.1133 67.6816 24.5918 67.1348 25.002C66.5879 25.403 65.9316 25.7174 65.166 25.9453C64.4095 26.1641 63.5573 26.2734 62.6094 26.2734C61.2331 26.2734 60.0664 26.0273 59.1094 25.5352C58.1615 25.043 57.4414 24.4186 56.9492 23.6621C56.4661 22.8965 56.2246 22.1126 56.2246 21.3105H59.957C59.9753 21.8483 60.112 22.2812 60.3672 22.6094C60.6315 22.9375 60.9642 23.1745 61.3652 23.3203C61.7754 23.4661 62.2174 23.5391 62.6914 23.5391C63.2018 23.5391 63.6257 23.4707 63.9629 23.334C64.3001 23.1882 64.5553 22.9967 64.7285 22.7598C64.9108 22.5137 65.002 22.2311 65.002 21.9121ZM75.3242 4.98633V26H71.3867V4.98633H75.3242ZM84.6484 11.207L78.2227 18.5352L74.7773 22.0215L73.3418 19.1777L76.0762 15.7051L79.918 11.207H84.6484ZM80.5605 26L76.1855 19.1641L78.9062 16.7852L85.0996 26H80.5605Z" fill="#70E1F5"/>
<path d="M94.3828 17.2637H89.2695L89.2422 14.4473H93.5352C94.2917 14.4473 94.9115 14.3516 95.3945 14.1602C95.8776 13.9596 96.2376 13.6725 96.4746 13.2988C96.7207 12.916 96.8438 12.4512 96.8438 11.9043C96.8438 11.2845 96.7253 10.7832 96.4883 10.4004C96.2604 10.0176 95.9004 9.73958 95.4082 9.56641C94.9251 9.39323 94.3008 9.30664 93.5352 9.30664H90.6914V26H86.5898V6.09375H93.5352C94.6927 6.09375 95.7272 6.20312 96.6387 6.42188C97.5592 6.64062 98.3385 6.97331 98.9766 7.41992C99.6146 7.86654 100.102 8.43164 100.439 9.11523C100.777 9.78971 100.945 10.5918 100.945 11.5215C100.945 12.3418 100.758 13.0983 100.385 13.791C100.02 14.4837 99.4414 15.0488 98.6484 15.4863C97.8646 15.9238 96.8392 16.1654 95.5723 16.2109L94.3828 17.2637ZM94.2051 26H88.1484L89.748 22.8008H94.2051C94.9251 22.8008 95.513 22.6868 95.9688 22.459C96.4245 22.222 96.7617 21.903 96.9805 21.502C97.1992 21.1009 97.3086 20.6406 97.3086 20.1211C97.3086 19.5378 97.2083 19.0319 97.0078 18.6035C96.8164 18.1751 96.5065 17.847 96.0781 17.6191C95.6497 17.3822 95.0846 17.2637 94.3828 17.2637H90.4316L90.459 14.4473H95.3809L96.3242 15.5547C97.5365 15.5365 98.5117 15.7507 99.25 16.1973C99.9974 16.6348 100.54 17.2044 100.877 17.9062C101.223 18.6081 101.396 19.36 101.396 20.1621C101.396 21.4382 101.118 22.5137 100.562 23.3887C100.007 24.2546 99.1908 24.9062 98.1152 25.3438C97.0488 25.7812 95.7454 26 94.2051 26ZM103.598 18.7539V18.4668C103.598 17.3822 103.753 16.3841 104.062 15.4727C104.372 14.5521 104.824 13.7546 105.416 13.0801C106.008 12.4056 106.738 11.8815 107.604 11.5078C108.469 11.125 109.463 10.9336 110.584 10.9336C111.705 10.9336 112.703 11.125 113.578 11.5078C114.453 11.8815 115.187 12.4056 115.779 13.0801C116.381 13.7546 116.837 14.5521 117.146 15.4727C117.456 16.3841 117.611 17.3822 117.611 18.4668V18.7539C117.611 19.8294 117.456 20.8275 117.146 21.748C116.837 22.6595 116.381 23.457 115.779 24.1406C115.187 24.8151 114.458 25.3392 113.592 25.7129C112.726 26.0866 111.732 26.2734 110.611 26.2734C109.49 26.2734 108.492 26.0866 107.617 25.7129C106.751 25.3392 106.018 24.8151 105.416 24.1406C104.824 23.457 104.372 22.6595 104.062 21.748C103.753 20.8275 103.598 19.8294 103.598 18.7539ZM107.535 18.4668V18.7539C107.535 19.3737 107.59 19.9525 107.699 20.4902C107.809 21.028 107.982 21.502 108.219 21.9121C108.465 22.3132 108.784 22.6276 109.176 22.8555C109.568 23.0833 110.046 23.1973 110.611 23.1973C111.158 23.1973 111.628 23.0833 112.02 22.8555C112.411 22.6276 112.726 22.3132 112.963 21.9121C113.2 21.502 113.373 21.028 113.482 20.4902C113.601 19.9525 113.66 19.3737 113.66 18.7539V18.4668C113.66 17.8652 113.601 17.3001 113.482 16.7715C113.373 16.2337 113.195 15.7598 112.949 15.3496C112.712 14.9303 112.398 14.6022 112.006 14.3652C111.614 14.1283 111.14 14.0098 110.584 14.0098C110.028 14.0098 109.554 14.1283 109.162 14.3652C108.779 14.6022 108.465 14.9303 108.219 15.3496C107.982 15.7598 107.809 16.2337 107.699 16.7715C107.59 17.3001 107.535 17.8652 107.535 18.4668ZM128.016 22.6641V16.0742C128.016 15.6003 127.938 15.1947 127.783 14.8574C127.628 14.5111 127.387 14.2422 127.059 14.0508C126.74 13.8594 126.325 13.7637 125.814 13.7637C125.377 13.7637 124.999 13.8411 124.68 13.9961C124.361 14.1419 124.115 14.3561 123.941 14.6387C123.768 14.9121 123.682 15.2357 123.682 15.6094H119.744C119.744 14.9805 119.89 14.3835 120.182 13.8184C120.473 13.2533 120.897 12.7565 121.453 12.3281C122.009 11.8906 122.67 11.5488 123.436 11.3027C124.21 11.0566 125.076 10.9336 126.033 10.9336C127.182 10.9336 128.202 11.125 129.096 11.5078C129.989 11.8906 130.691 12.4648 131.201 13.2305C131.721 13.9961 131.98 14.9531 131.98 16.1016V22.4316C131.98 23.2428 132.031 23.9082 132.131 24.4277C132.231 24.9382 132.377 25.3848 132.568 25.7676V26H128.59C128.398 25.599 128.253 25.0977 128.152 24.4961C128.061 23.8854 128.016 23.2747 128.016 22.6641ZM128.535 16.9902L128.562 19.2188H126.361C125.842 19.2188 125.391 19.278 125.008 19.3965C124.625 19.515 124.311 19.6836 124.064 19.9023C123.818 20.112 123.636 20.3581 123.518 20.6406C123.408 20.9232 123.354 21.2331 123.354 21.5703C123.354 21.9076 123.431 22.2129 123.586 22.4863C123.741 22.7507 123.964 22.9603 124.256 23.1152C124.548 23.2611 124.889 23.334 125.281 23.334C125.874 23.334 126.389 23.2155 126.826 22.9785C127.264 22.7415 127.601 22.4499 127.838 22.1035C128.084 21.7572 128.212 21.429 128.221 21.1191L129.26 22.7871C129.114 23.1608 128.913 23.5482 128.658 23.9492C128.412 24.3503 128.098 24.7285 127.715 25.084C127.332 25.4303 126.872 25.7174 126.334 25.9453C125.796 26.1641 125.158 26.2734 124.42 26.2734C123.481 26.2734 122.629 26.0866 121.863 25.7129C121.107 25.3301 120.505 24.806 120.059 24.1406C119.621 23.4661 119.402 22.7005 119.402 21.8438C119.402 21.069 119.548 20.3809 119.84 19.7793C120.132 19.1777 120.56 18.6719 121.125 18.2617C121.699 17.8424 122.415 17.528 123.271 17.3184C124.128 17.0996 125.122 16.9902 126.252 16.9902H128.535ZM138.953 14.4336V26H135.016V11.207H138.721L138.953 14.4336ZM143.41 11.1113L143.342 14.7617C143.15 14.7344 142.918 14.7116 142.645 14.6934C142.38 14.666 142.139 14.6523 141.92 14.6523C141.364 14.6523 140.881 14.7253 140.471 14.8711C140.07 15.0078 139.732 15.2129 139.459 15.4863C139.195 15.7598 138.994 16.0924 138.857 16.4844C138.73 16.8763 138.657 17.3229 138.639 17.8242L137.846 17.5781C137.846 16.6211 137.941 15.7415 138.133 14.9395C138.324 14.1283 138.602 13.4219 138.967 12.8203C139.34 12.2188 139.796 11.7539 140.334 11.4258C140.872 11.0977 141.487 10.9336 142.18 10.9336C142.398 10.9336 142.622 10.9518 142.85 10.9883C143.077 11.0156 143.264 11.0566 143.41 11.1113ZM153.732 22.7734V5H157.697V26H154.129L153.732 22.7734ZM144.381 18.7812V18.4941C144.381 17.3639 144.508 16.3385 144.764 15.418C145.019 14.4883 145.393 13.6908 145.885 13.0254C146.377 12.36 146.983 11.8451 147.703 11.4805C148.423 11.1159 149.243 10.9336 150.164 10.9336C151.03 10.9336 151.786 11.1159 152.434 11.4805C153.09 11.8451 153.646 12.3646 154.102 13.0391C154.566 13.7044 154.94 14.4928 155.223 15.4043C155.505 16.3066 155.71 17.2956 155.838 18.3711V19C155.71 20.0299 155.505 20.987 155.223 21.8711C154.94 22.7552 154.566 23.5299 154.102 24.1953C153.646 24.8516 153.09 25.362 152.434 25.7266C151.777 26.0911 151.012 26.2734 150.137 26.2734C149.216 26.2734 148.396 26.0866 147.676 25.7129C146.965 25.3392 146.363 24.8151 145.871 24.1406C145.388 23.4661 145.019 22.6732 144.764 21.7617C144.508 20.8503 144.381 19.8568 144.381 18.7812ZM148.318 18.4941V18.7812C148.318 19.3919 148.364 19.9616 148.455 20.4902C148.555 21.0189 148.715 21.4883 148.934 21.8984C149.161 22.2995 149.453 22.6139 149.809 22.8418C150.173 23.0605 150.615 23.1699 151.135 23.1699C151.809 23.1699 152.365 23.0195 152.803 22.7188C153.24 22.4089 153.573 21.985 153.801 21.4473C154.038 20.9095 154.174 20.2897 154.211 19.5879V17.7969C154.184 17.2227 154.102 16.7077 153.965 16.252C153.837 15.7871 153.646 15.3906 153.391 15.0625C153.145 14.7344 152.835 14.4792 152.461 14.2969C152.096 14.1146 151.663 14.0234 151.162 14.0234C150.652 14.0234 150.214 14.1419 149.85 14.3789C149.485 14.6068 149.189 14.9212 148.961 15.3223C148.742 15.7233 148.578 16.1973 148.469 16.7441C148.368 17.2819 148.318 17.8652 148.318 18.4941Z" fill="#70C6F5"/>
<path d="M18.3 6.71429H17.2344C16.8618 5.71914 15.8718 5 14.7 5H9.3C8.1282 5 7.1382 5.71914 6.7656 6.71429H5.7C4.2114 6.71429 3 7.868 3 9.28571V26.4286C3 27.8463 4.2114 29 5.7 29H18.3C19.7886 29 21 27.8463 21 26.4286V9.28571C21 7.868 19.7886 6.71429 18.3 6.71429ZM9.3 6.71429H14.7C15.1968 6.71429 15.6 7.09914 15.6 7.57143C15.6 8.04371 15.1968 8.42857 14.7 8.42857H9.3C8.8032 8.42857 8.4 8.04371 8.4 7.57143C8.4 7.09914 8.8032 6.71429 9.3 6.71429ZM19.2 26.4286C19.2 26.9009 18.7968 27.2857 18.3 27.2857H5.7C5.2032 27.2857 4.8 26.9009 4.8 26.4286V9.28571C4.8 8.81343 5.2032 8.42857 5.7 8.42857H6.7656C7.1382 9.42371 8.1282 10.1429 9.3 10.1429H14.7C15.8718 10.1429 16.8618 9.42371 17.2344 8.42857H18.3C18.7968 8.42857 19.2 8.81343 19.2 9.28571V26.4286ZM9.3 23.8571C9.3 24.3303 8.8977 24.7143 8.4 24.7143H7.5C7.0023 24.7143 6.6 24.3303 6.6 23.8571C6.6 23.384 7.0023 23 7.5 23H8.4C8.8977 23 9.3 23.384 9.3 23.8571ZM9.3 13.5714C9.3 14.0446 8.8977 14.4286 8.4 14.4286H7.5C7.0023 14.4286 6.6 14.0446 6.6 13.5714C6.6 13.0983 7.0023 12.7143 7.5 12.7143H8.4C8.8977 12.7143 9.3 13.0983 9.3 13.5714ZM9.3 20.4286C9.3 20.9017 8.8977 21.2857 8.4 21.2857H7.5C7.0023 21.2857 6.6 20.9017 6.6 20.4286C6.6 19.9554 7.0023 19.5714 7.5 19.5714H8.4C8.8977 19.5714 9.3 19.9554 9.3 20.4286ZM9.3 17C9.3 17.4731 8.8977 17.8571 8.4 17.8571H7.5C7.0023 17.8571 6.6 17.4731 6.6 17C6.6 16.5269 7.0023 16.1429 7.5 16.1429H8.4C8.8977 16.1429 9.3 16.5269 9.3 17ZM17.4 13.5714C17.4 14.0446 16.9977 14.4286 16.5 14.4286H11.1C10.6023 14.4286 10.2 14.0446 10.2 13.5714C10.2 13.0983 10.6023 12.7143 11.1 12.7143H16.5C16.9977 12.7143 17.4 13.0983 17.4 13.5714ZM17.4 17C17.4 17.4731 16.9977 17.8571 16.5 17.8571H11.1C10.6023 17.8571 10.2 17.4731 10.2 17C10.2 16.5269 10.6023 16.1429 11.1 16.1429H16.5C16.9977 16.1429 17.4 16.5269 17.4 17ZM17.4 20.4286C17.4 20.9017 16.9977 21.2857 16.5 21.2857H11.1C10.6023 21.2857 10.2 20.9017 10.2 20.4286C10.2 19.9554 10.6023 19.5714 11.1 19.5714H16.5C16.9977 19.5714 17.4 19.9554 17.4 20.4286ZM17.4 23.8571C17.4 24.3303 16.9977 24.7143 16.5 24.7143H11.1C10.6023 24.7143 10.2 24.3303 10.2 23.8571C10.2 23.384 10.6023 23 11.1 23H16.5C16.9977 23 17.4 23.384 17.4 23.8571Z" fill="url(#paint0_linear_2_57)"/>
<defs>
<linearGradient id="paint0_linear_2_57" x1="3" y1="29" x2="19.9552" y2="4.2833" gradientUnits="userSpaceOnUse">
<stop stop-color="#70C6F5"/>
<stop offset="1" stop-color="#70E1F5"/>
</linearGradient>
</defs>
</svg>
